# Blender 4.2.3 LTS
# www.blender.org
mtllib destination.mtl
o Garage_2
v -3.429933 2.432984 2.289622
v -3.429933 2.432984 -2.289622
v 3.429933 2.621468 2.289622
v 3.429933 2.621468 -2.289622
v 4.484329 2.480886 2.289622
v 4.484329 2.480886 -2.289622
v -3.429933 2.469910 2.289622
v -3.429933 2.469910 -2.289622
v 3.429933 2.658393 -2.289622
v 3.429933 2.658393 2.289622
v 4.484329 2.517811 -2.289622
v 4.484329 2.517811 2.289622
v -3.219455 -0.160731 2.149119
v -3.219455 2.438767 2.149119
v -3.219455 -0.160731 -2.149119
v -3.219455 2.438767 -2.149119
v 3.219455 -0.160731 2.149119
v 3.219455 2.615685 2.149119
v 3.219455 -0.160731 1.510295
v 3.219455 2.120113 -1.510295
v 3.219455 -0.160731 -1.510295
v 3.219455 2.120113 1.510295
v 3.107719 -0.160731 1.510295
v 3.107719 -0.160731 -1.510295
v 3.107719 2.120113 -1.510295
v 3.107719 2.120113 1.510295
v 3.219455 -0.160730 -2.149119
v 3.219455 2.615685 -2.149119
v -3.219455 1.286733 -0.007039
v -3.219455 2.112860 -0.007039
v -3.219455 2.112860 -1.882518
v -3.219455 1.286733 -1.882518
v -3.118571 1.286733 -0.007039
v -3.118571 1.286733 -1.882518
v -3.118571 2.112860 -1.882518
v -3.118571 2.112860 -0.007039
vn 0.0275 -0.9996 -0.0000
vn -0.1322 -0.9912 -0.0000
vn -0.0275 0.9996 -0.0000
vn 0.1322 0.9912 -0.0000
vn 1.0000 -0.0000 -0.0000
vn -1.0000 -0.0000 -0.0000
vn -0.0000 -0.0000 -1.0000
vn -0.0000 -0.0000 1.0000
vn -0.0000 -1.0000 -0.0000
vn -0.0000 1.0000 -0.0000
usemtl Metal
f 3/1/1 2/2/1 4/3/1
f 6/4/2 3/1/2 4/3/2
f 8/4/3 10/5/3 9/6/3
f 10/5/4 11/2/4 9/6/4
f 6/7/5 12/8/5 5/9/5
f 1/10/6 8/11/6 2/12/6
f 4/13/7 11/14/7 6/15/7
f 3/16/8 7/17/8 1/18/8
f 4/19/7 8/20/7 9/21/7
f 3/22/8 12/23/8 10/24/8
f 3/1/1 1/69/1 2/2/1
f 6/4/2 5/70/2 3/1/2
f 8/4/3 7/71/3 10/5/3
f 10/5/4 12/72/4 11/2/4
f 6/7/5 11/73/5 12/8/5
f 1/10/6 7/74/6 8/11/6
f 4/13/7 9/75/7 11/14/7
f 3/16/8 10/76/8 7/17/8
f 4/19/7 2/77/7 8/20/7
f 3/22/8 5/78/8 12/23/8
usemtl Window
f 33/25/6 35/26/6 34/27/6
f 33/25/6 36/79/6 35/26/6
usemtl Gazoblock
f 17/28/8 14/29/8 13/30/8
f 20/31/5 27/32/5 28/33/5
f 20/31/5 18/34/5 22/35/5
f 22/35/5 17/36/5 19/37/5
f 19/38/7 26/39/7 22/40/7
f 20/41/8 24/42/8 21/43/8
f 22/44/9 25/45/9 20/46/9
f 29/47/10 34/48/10 32/49/10
f 27/28/7 16/29/7 28/50/7
f 29/51/6 14/52/6 30/53/6
f 32/54/6 16/55/6 15/32/6
f 29/51/6 15/32/6 13/36/6
f 30/53/6 16/55/6 31/56/6
f 32/57/8 35/58/8 31/59/8
f 31/60/9 36/61/9 30/62/9
f 30/63/7 33/64/7 29/65/7
f 17/28/8 18/50/8 14/29/8
f 20/31/5 21/80/5 27/32/5
f 20/31/5 28/33/5 18/34/5
f 22/35/5 18/34/5 17/36/5
f 19/38/7 23/81/7 26/39/7
f 20/41/8 25/82/8 24/42/8
f 22/44/9 26/83/9 25/45/9
f 29/47/10 33/84/10 34/48/10
f 27/28/7 15/30/7 16/29/7
f 29/51/6 13/36/6 14/52/6
f 32/54/6 31/56/6 16/55/6
f 29/51/6 32/54/6 15/32/6
f 30/53/6 14/52/6 16/55/6
f 32/57/8 34/85/8 35/58/8
f 31/60/9 35/86/9 36/61/9
f 30/63/7 36/87/7 33/64/7
usemtl Garage_2
f 25/66/5 23/67/5 24/68/5
f 25/66/5 26/88/5 23/67/5
